<svg width="147" height="83" viewBox="0 0 147 83" fill="none" xmlns="http://www.w3.org/2000/svg">
<path fill-rule="evenodd" clip-rule="evenodd" d="M28 82.9831C12.4468 82.456 0 69.6816 0 54C0 37.9837 12.9837 25 29 25C33.7494 25 38.2321 26.1417 42.1887 28.1656C47.7425 11.787 63.2447 0 81.5 0C102.21 0 119.377 15.1705 122.495 35.0052C122.663 35.0017 122.831 35 123 35C136.255 35 147 45.7452 147 59C147 72.2548 136.255 83 123 83H81.5H29H28V82.9831Z" fill="url(#paint0_linear_16_11)"/>
<defs>
<linearGradient id="paint0_linear_16_11" x1="73.5" y1="0" x2="73.5" y2="83" gradientUnits="userSpaceOnUse">
<stop offset="0.711458" stop-color="white"/>
<stop offset="0.898958" stop-color="#003D76" stop-opacity="0.5"/>
<stop offset="1" stop-color="#003D76" stop-opacity="0.7"/>
</linearGradient>
</defs>
</svg>
